<?xml version="1.0" encoding="UTF-8" standalone="no" ?>
<!DOCTYPE svg PUBLIC "-//W3C//DTD SVG 1.1//EN" "http://www.w3.org/Graphics/SVG/1.1/DTD/svg11.dtd">
<svg xmlns="http://www.w3.org/2000/svg" xmlns:xlink="http://www.w3.org/1999/xlink" version="1.1" width="29" height="24" viewBox="0 0 29 24" xml:space="preserve">
<desc>Created with Fabric.js 5.2.4</desc>
<defs>
</defs>
<rect x="0" y="0" width="100%" height="100%" fill="transparent"></rect>
<g transform="matrix(Infinity NaN NaN Infinity 0 0)" id="88373c47-b4d3-4097-a441-659a3b87de7a"  >
</g>
<g transform="matrix(1 0 0 1 14.5 12)" id="32c874fa-c228-4a6f-8cf6-1357724f4827"  >
<rect style="stroke: none; stroke-width: 1; stroke-dasharray: none; stroke-linecap: butt; stroke-dashoffset: 0; stroke-linejoin: miter; stroke-miterlimit: 4; fill: rgb(255,255,255); fill-rule: nonzero; opacity: 1; visibility: hidden;" vector-effect="non-scaling-stroke"  x="-14.5" y="-12" rx="0" ry="0" width="29" height="24" />
</g>
<g transform="matrix(NaN NaN NaN NaN 0 0)"  >
<g style=""   >
</g>
</g>
<g transform="matrix(NaN NaN NaN NaN 0 0)"  >
<g style=""   >
</g>
</g>
<g transform="matrix(0.8 0 0 0.8 14.5 12)"  >
<g style=""   >
		<g transform="matrix(1 0 0 1 -0.19 -3.97)"  >
<path style="stroke: none; stroke-width: 1; stroke-dasharray: none; stroke-linecap: butt; stroke-dashoffset: 0; stroke-linejoin: miter; stroke-miterlimit: 4; fill: rgb(235,235,223); fill-rule: nonzero; opacity: 1;" vector-effect="non-scaling-stroke"  transform=" translate(-14.81, -8.03)" d="M 21.8635 16.0533 L 25.4065 2.18059 L 29.2825 2.18059 L 29.2825 0 L 23.7128 0 L 22.8776 3.27024 L 0.330017 3.25411 L 2.72716 16.0532 L 21.8635 16.0532 L 21.8635 16.0533 Z M 22.3208 5.45045 L 20.1698 13.8727 L 4.53724 13.8727 L 2.95724 5.4366 L 22.3208 5.45045 Z" stroke-linecap="round" />
</g>
		<g transform="matrix(1 0 0 1 -2.69 8.51)"  >
<path style="stroke: none; stroke-width: 1; stroke-dasharray: none; stroke-linecap: butt; stroke-dashoffset: 0; stroke-linejoin: miter; stroke-miterlimit: 4; fill: rgb(235,235,223); fill-rule: nonzero; opacity: 1;" vector-effect="non-scaling-stroke"  transform=" translate(-12.31, -20.51)" d="M 18.8784 24 C 20.8012 24 22.3656 22.4356 22.3656 20.5128 C 22.3656 18.59 20.8012 17.0258 18.8784 17.0258 L 5.74035 17.0258 C 3.81755 17.0258 2.2532 18.59 2.2532 20.5128 C 2.2532 22.4356 3.81752 24 5.74035 24 C 7.66318 24 9.22747 22.4356 9.22747 20.5128 C 9.22747 20.0511 9.13701 19.6101 8.97327 19.2064 L 15.6455 19.2064 C 15.4818 19.6101 15.3913 20.0511 15.3913 20.5128 C 15.3913 22.4356 16.9556 24 18.8784 24 Z M 7.04688 20.5128 C 7.04688 21.2333 6.46078 21.8194 5.74035 21.8194 C 5.01992 21.8194 4.43379 21.2333 4.43379 20.5128 C 4.43379 19.7925 5.01989 19.2064 5.74035 19.2064 C 6.46078 19.2064 7.04688 19.7925 7.04688 20.5128 Z M 20.185 20.5128 C 20.185 21.2333 19.5989 21.8194 18.8785 21.8194 C 18.158 21.8194 17.5719 21.2333 17.5719 20.5128 C 17.5719 19.7925 18.158 19.2064 18.8785 19.2064 C 19.5989 19.2064 20.185 19.7925 20.185 20.5128 Z" stroke-linecap="round" />
</g>
</g>
</g>
<g transform="matrix(0.8 0 0 0.8 14.5 12)"  >
<g style=""   >
		<g transform="matrix(1 0 0 1 -0.19 -3.97)"  >
<path style="stroke: none; stroke-width: 1; stroke-dasharray: none; stroke-linecap: butt; stroke-dashoffset: 0; stroke-linejoin: miter; stroke-miterlimit: 4; fill: rgb(235,235,223); fill-rule: nonzero; opacity: 1;" vector-effect="non-scaling-stroke"  transform=" translate(-14.81, -8.03)" d="M 21.8635 16.0533 L 25.4065 2.18059 L 29.2825 2.18059 L 29.2825 0 L 23.7128 0 L 22.8776 3.27024 L 0.330017 3.25411 L 2.72716 16.0532 L 21.8635 16.0532 L 21.8635 16.0533 Z M 22.3208 5.45045 L 20.1698 13.8727 L 4.53724 13.8727 L 2.95724 5.4366 L 22.3208 5.45045 Z" stroke-linecap="round" />
</g>
		<g transform="matrix(1 0 0 1 -2.69 8.51)"  >
<path style="stroke: none; stroke-width: 1; stroke-dasharray: none; stroke-linecap: butt; stroke-dashoffset: 0; stroke-linejoin: miter; stroke-miterlimit: 4; fill: rgb(235,235,223); fill-rule: nonzero; opacity: 1;" vector-effect="non-scaling-stroke"  transform=" translate(-12.31, -20.51)" d="M 18.8784 24 C 20.8012 24 22.3656 22.4356 22.3656 20.5128 C 22.3656 18.59 20.8012 17.0258 18.8784 17.0258 L 5.74035 17.0258 C 3.81755 17.0258 2.2532 18.59 2.2532 20.5128 C 2.2532 22.4356 3.81752 24 5.74035 24 C 7.66318 24 9.22747 22.4356 9.22747 20.5128 C 9.22747 20.0511 9.13701 19.6101 8.97327 19.2064 L 15.6455 19.2064 C 15.4818 19.6101 15.3913 20.0511 15.3913 20.5128 C 15.3913 22.4356 16.9556 24 18.8784 24 Z M 7.04688 20.5128 C 7.04688 21.2333 6.46078 21.8194 5.74035 21.8194 C 5.01992 21.8194 4.43379 21.2333 4.43379 20.5128 C 4.43379 19.7925 5.01989 19.2064 5.74035 19.2064 C 6.46078 19.2064 7.04688 19.7925 7.04688 20.5128 Z M 20.185 20.5128 C 20.185 21.2333 19.5989 21.8194 18.8785 21.8194 C 18.158 21.8194 17.5719 21.2333 17.5719 20.5128 C 17.5719 19.7925 18.158 19.2064 18.8785 19.2064 C 19.5989 19.2064 20.185 19.7925 20.185 20.5128 Z" stroke-linecap="round" />
</g>
</g>
</g>
</svg>