<?xml version="1.0" encoding="UTF-8" standalone="no" ?>
<!DOCTYPE svg PUBLIC "-//W3C//DTD SVG 1.1//EN" "http://www.w3.org/Graphics/SVG/1.1/DTD/svg11.dtd">
<svg xmlns="http://www.w3.org/2000/svg" xmlns:xlink="http://www.w3.org/1999/xlink" version="1.1" width="1080" height="1080" viewBox="0 0 1080 1080" xml:space="preserve">
<desc>Created with Fabric.js 5.2.4</desc>
<defs>
</defs>
<g transform="matrix(1 0 0 1 540 540)" id="a5f24c84-5852-4a84-8f74-31c64ed86fcb"  >
<rect style="stroke: none; stroke-width: 1; stroke-dasharray: none; stroke-linecap: butt; stroke-dashoffset: 0; stroke-linejoin: miter; stroke-miterlimit: 4; fill: rgb(255,255,255); fill-rule: nonzero; opacity: 1; visibility: hidden;" vector-effect="non-scaling-stroke"  x="-540" y="-540" rx="0" ry="0" width="1080" height="1080" />
</g>
<g transform="matrix(1 0 0 1 540 540)" id="98db2af5-4e49-45b3-83a6-e3e1e1a4e14a"  >
</g>
<g transform="matrix(7.35 0 0 7.35 540 540)"  >
<g style=""   >
		<g transform="matrix(1 0 0 1 0 0)"  >
<rect style="stroke: none; stroke-width: 1; stroke-dasharray: none; stroke-linecap: butt; stroke-dashoffset: 0; stroke-linejoin: miter; stroke-miterlimit: 4; fill: rgb(226,9,13); fill-rule: nonzero; opacity: 1;" vector-effect="non-scaling-stroke"  x="-73.5" y="-32" rx="8" ry="8" width="147" height="64" />
</g>
		<g transform="matrix(1 0 0 1 -38.1 0.6)" clip-path="url(#CLIPPATH_3)"  >
<clipPath id="CLIPPATH_3" >
	<rect transform="matrix(1 0 0 1 0.6 -0.6)" id="clip1_3_2049" clip-path="url(#undefined)" x="-12" y="-12" rx="0" ry="0" width="24" height="24" />
</clipPath>
<path style="stroke: none; stroke-width: 1; stroke-dasharray: none; stroke-linecap: butt; stroke-dashoffset: 0; stroke-linejoin: miter; stroke-miterlimit: 4; fill: rgb(0,0,0); fill-rule: nonzero; opacity: 1;" vector-effect="non-scaling-stroke"  transform=" translate(-35.4, -32.6)" d="M 29.1322 30.9907 L 33.2185 32.3528 C 34.1123 32.6508 34.5592 32.7998 34.8798 33.1202 C 35.2002 33.4408 35.3492 33.8876 35.6472 34.7814 L 37.0092 38.8677 C 37.3858 39.9973 37.574 40.562 37.92 40.562 C 38.266 40.562 38.4542 39.9973 38.8308 38.8677 L 43.0728 26.1415 C 43.3378 25.3467 43.4702 24.9493 43.2605 24.7395 C 43.0507 24.5297 42.6533 24.6622 41.8585 24.9271 L 29.1322 29.1692 C 28.0027 29.5458 27.4379 29.734 27.4379 30.08 C 27.4379 30.426 28.0027 30.6142 29.1322 30.9907 Z" stroke-linecap="round" />
</g>
		<g transform="matrix(1 0 0 1 15.46 0.46)"  >
<path style="stroke: none; stroke-width: 1; stroke-dasharray: none; stroke-linecap: butt; stroke-dashoffset: 0; stroke-linejoin: miter; stroke-miterlimit: 4; fill: rgb(0,0,0); fill-rule: nonzero; opacity: 1;" vector-effect="non-scaling-stroke"  transform=" translate(-88.96, -32.46)" d="M 68.8097 32.4545 C 68.8097 33.8523 68.554 35.054 68.0426 36.0597 C 67.5313 37.0611 66.8303 37.8324 65.9396 38.3736 C 65.0533 38.9105 64.0455 39.179 62.9162 39.179 C 61.7827 39.179 60.7706 38.9105 59.88 38.3736 C 58.9936 37.8324 58.2947 37.0589 57.7834 36.0533 C 57.272 35.0476 57.0163 33.848 57.0163 32.4545 C 57.0163 31.0568 57.272 29.8572 57.7834 28.8558 C 58.2947 27.8501 58.9936 27.0788 59.88 26.5419 C 60.7706 26.0007 61.7827 25.7301 62.9162 25.7301 C 64.0455 25.7301 65.0533 26.0007 65.9396 26.5419 C 66.8303 27.0788 67.5313 27.8501 68.0426 28.8558 C 68.554 29.8572 68.8097 31.0568 68.8097 32.4545 Z M 66.8537 32.4545 C 66.8537 31.3892 66.6811 30.4922 66.3359 29.7635 C 65.995 29.0305 65.5263 28.4766 64.9297 28.1016 C 64.3374 27.7223 63.6662 27.5327 62.9162 27.5327 C 62.1619 27.5327 61.4886 27.7223 60.8963 28.1016 C 60.304 28.4766 59.8352 29.0305 59.4901 29.7635 C 59.1491 30.4922 58.9787 31.3892 58.9787 32.4545 C 58.9787 33.5199 59.1491 34.419 59.4901 35.152 C 59.8352 35.8807 60.304 36.4347 60.8963 36.8139 C 61.4886 37.1889 62.1619 37.3764 62.9162 37.3764 C 63.6662 37.3764 64.3374 37.1889 64.9297 36.8139 C 65.5263 36.4347 65.995 35.8807 66.3359 35.152 C 66.6811 34.419 66.8537 33.5199 66.8537 32.4545 Z M 69.6691 30.831 L 69.6691 29.1818 L 77.9532 29.1818 L 77.9532 30.831 L 74.7507 30.831 L 74.7507 39 L 72.8843 39 L 72.8843 30.831 L 69.6691 30.831 Z M 78.493 36.4048 L 80.4489 36.4048 C 80.4745 36.8054 80.6556 37.1143 80.9923 37.3317 C 81.3332 37.549 81.7742 37.6577 82.3154 37.6577 C 82.8651 37.6577 83.3339 37.5405 83.7217 37.3061 C 84.1094 37.0675 84.3033 36.6989 84.3033 36.2003 C 84.3033 35.902 84.2288 35.642 84.0796 35.4205 C 83.9347 35.1946 83.7281 35.0199 83.4596 34.8963 C 83.1954 34.7727 82.8822 34.7109 82.52 34.7109 L 80.9219 34.7109 L 80.9219 33.2088 L 82.52 33.2088 C 83.0612 33.2088 83.466 33.0852 83.7344 32.8381 C 84.0029 32.5909 84.1371 32.282 84.1371 31.9112 C 84.1371 31.5107 83.9923 31.1889 83.7025 30.946 C 83.417 30.6989 83.0185 30.5753 82.5072 30.5753 C 81.9873 30.5753 81.5548 30.6925 81.2096 30.9268 C 80.8644 31.157 80.6833 31.4553 80.6663 31.8217 L 78.7359 31.8217 C 78.7487 31.272 78.9148 30.7905 79.2344 30.3771 C 79.5583 29.9595 79.993 29.6357 80.5384 29.4055 C 81.0881 29.1712 81.7124 29.054 82.4113 29.054 C 83.14 29.054 83.7707 29.1712 84.3033 29.4055 C 84.836 29.6399 85.2472 29.9638 85.537 30.3771 C 85.831 30.7905 85.9781 31.2656 85.9781 31.8026 C 85.9781 32.3437 85.8161 32.7869 85.4923 33.1321 C 85.1727 33.473 84.755 33.718 84.2394 33.8672 L 84.2394 33.9695 C 84.6187 33.995 84.9553 34.1101 85.2494 34.3146 C 85.5434 34.5192 85.7735 34.7898 85.9397 35.1264 C 86.1059 35.4631 86.189 35.8445 86.189 36.2706 C 86.189 36.8714 86.0228 37.3913 85.6904 37.8303 C 85.3623 38.2692 84.9063 38.608 84.3225 38.8466 C 83.743 39.081 83.0803 39.1982 82.3346 39.1982 C 81.6102 39.1982 80.9603 39.0852 80.385 38.8594 C 79.814 38.6293 79.3602 38.3054 79.0235 37.8878 C 78.6911 37.4702 78.5143 36.9759 78.493 36.4048 Z M 88.7007 32.5568 L 91.5516 32.5568 C 92.7533 32.5568 93.678 32.8551 94.3257 33.4517 C 94.9735 34.0483 95.2973 34.8175 95.2973 35.7592 C 95.2973 36.3729 95.1524 36.9247 94.8627 37.4148 C 94.5729 37.9048 94.1489 38.2926 93.5907 38.5781 C 93.0324 38.8594 92.3527 39 91.5516 39 L 87.2625 39 L 87.2625 29.1818 L 89.1354 29.1818 L 89.1354 37.3509 L 91.5516 37.3509 C 92.1013 37.3509 92.553 37.2081 92.9067 36.9226 C 93.2604 36.6328 93.4373 36.2642 93.4373 35.8168 C 93.4373 35.3437 93.2604 34.9581 92.9067 34.6598 C 92.553 34.3572 92.1013 34.206 91.5516 34.206 L 88.7007 34.206 L 88.7007 32.5568 Z M 96.6908 39 L 96.6908 29.1818 L 98.602 29.1818 L 98.602 39 L 96.6908 39 Z M 100.267 39 L 100.267 29.1818 L 104.339 29.1818 C 105.447 29.1818 106.324 29.4183 106.972 29.8913 C 107.62 30.3601 107.944 30.9972 107.944 31.8026 C 107.944 32.3778 107.76 32.8338 107.394 33.1705 C 107.027 33.5071 106.542 33.733 105.937 33.848 C 106.375 33.8991 106.778 34.0312 107.145 34.2443 C 107.511 34.4531 107.805 34.7344 108.027 35.0881 C 108.253 35.4418 108.366 35.8636 108.366 36.3537 C 108.366 36.8736 108.231 37.3338 107.963 37.7344 C 107.694 38.1307 107.304 38.4418 106.793 38.6676 C 106.286 38.8892 105.675 39 104.959 39 L 100.267 39 Z M 102.063 37.402 L 104.959 37.402 C 105.432 37.402 105.802 37.2891 106.071 37.0632 C 106.339 36.8374 106.474 36.5305 106.474 36.1428 C 106.474 35.6868 106.339 35.3288 106.071 35.0689 C 105.802 34.8047 105.432 34.6726 104.959 34.6726 L 102.063 34.6726 L 102.063 37.402 Z M 102.063 33.2727 L 104.358 33.2727 C 104.716 33.2727 105.023 33.2216 105.278 33.1193 C 105.538 33.017 105.736 32.8722 105.873 32.6847 C 106.013 32.4929 106.084 32.267 106.084 32.0071 C 106.084 31.6278 105.928 31.3317 105.617 31.1186 C 105.306 30.9055 104.88 30.799 104.339 30.799 L 102.063 30.799 L 102.063 33.2727 Z M 111 32.5568 L 113.851 32.5568 C 115.053 32.5568 115.978 32.8551 116.625 33.4517 C 117.273 34.0483 117.597 34.8175 117.597 35.7592 C 117.597 36.3729 117.452 36.9247 117.162 37.4148 C 116.873 37.9048 116.449 38.2926 115.89 38.5781 C 115.332 38.8594 114.652 39 113.851 39 L 109.562 39 L 109.562 29.1818 L 111.435 29.1818 L 111.435 37.3509 L 113.851 37.3509 C 114.401 37.3509 114.853 37.2081 115.206 36.9226 C 115.56 36.6328 115.737 36.2642 115.737 35.8168 C 115.737 35.3437 115.56 34.9581 115.206 34.6598 C 114.853 34.3572 114.401 34.206 113.851 34.206 L 111 34.206 L 111 32.5568 Z M 118.99 39 L 118.99 29.1818 L 120.902 29.1818 L 120.902 39 L 118.99 39 Z" stroke-linecap="round" />
</g>
</g>
</g>
</svg>