<?xml version="1.0" encoding="UTF-8" standalone="no" ?>
<!DOCTYPE svg PUBLIC "-//W3C//DTD SVG 1.1//EN" "http://www.w3.org/Graphics/SVG/1.1/DTD/svg11.dtd">
<svg xmlns="http://www.w3.org/2000/svg" xmlns:xlink="http://www.w3.org/1999/xlink" version="1.1" width="1080" height="1080" viewBox="0 0 1080 1080" xml:space="preserve">
<desc>Created with Fabric.js 5.2.4</desc>
<defs>
</defs>
<g transform="matrix(1 0 0 1 540 540)" id="6051edb0-91ef-4f14-813b-e8962f890b13"  >
<rect style="stroke: none; stroke-width: 1; stroke-dasharray: none; stroke-linecap: butt; stroke-dashoffset: 0; stroke-linejoin: miter; stroke-miterlimit: 4; fill: rgb(255,255,255); fill-rule: nonzero; opacity: 1; visibility: hidden;" vector-effect="non-scaling-stroke"  x="-540" y="-540" rx="0" ry="0" width="1080" height="1080" />
</g>
<g transform="matrix(1 0 0 1 540 540)" id="0a08c159-d807-41f0-94d3-be2f8fcff277"  >
</g>
<g transform="matrix(28.42 0 0 28.42 540 540)"  >
<g style=""   >
		<g transform="matrix(1 0 0 1 0 -0.14)"  >
<path style="stroke: none; stroke-width: 1; stroke-dasharray: none; stroke-linecap: butt; stroke-dashoffset: 0; stroke-linejoin: miter; stroke-miterlimit: 4; fill: rgb(245,245,245); fill-rule: nonzero; opacity: 1;" vector-effect="non-scaling-stroke"  transform=" translate(-19, -13.36)" d="M 34.729 0.0000796104 L 3.27103 0.0000796104 C 1.74058 0.0000796104 0.5 1.3675 0.5 3.05442 L 0.5 23.6657 C 0.5 25.3525 1.74058 26.72 3.27103 26.72 L 34.729 26.72 C 36.2593 26.72 37.5 25.3526 37.5 23.6657 L 37.5 3.05442 C 37.5 1.3675 36.2594 0.0000796104 34.729 0.0000796104 Z" stroke-linecap="round" />
</g>
		<g transform="matrix(1 0 0 1 0 -12.47)"  >
<path style="stroke: none; stroke-width: 1; stroke-dasharray: none; stroke-linecap: butt; stroke-dashoffset: 0; stroke-linejoin: miter; stroke-miterlimit: 4; fill: rgb(255,75,85); fill-rule: nonzero; opacity: 1;" vector-effect="non-scaling-stroke"  transform=" translate(-19, -1.03)" d="M 0.652408 2.05548 L 37.3475 2.05548 C 36.972 0.859309 35.9418 0.0000796104 34.729 0.0000796104 L 3.27103 0.0000796104 C 2.05812 0.0000796104 1.02797 0.859309 0.652408 2.05548 Z" stroke-linecap="round" />
</g>
		<g transform="matrix(1 0 0 1 0 -4.25)"  >
<path style="stroke: none; stroke-width: 1; stroke-dasharray: none; stroke-linecap: butt; stroke-dashoffset: 0; stroke-linejoin: miter; stroke-miterlimit: 4; fill: rgb(255,75,85); fill-rule: nonzero; opacity: 1;" vector-effect="non-scaling-stroke"  transform=" translate(-19, -9.25)" d="M 37.5 8.22151 L 0.5 8.22151 L 0.5 10.2768 L 37.5 10.2768 L 37.5 8.22151 Z" stroke-linecap="round" />
</g>
		<g transform="matrix(1 0 0 1 0 -8.36)"  >
<path style="stroke: none; stroke-width: 1; stroke-dasharray: none; stroke-linecap: butt; stroke-dashoffset: 0; stroke-linejoin: miter; stroke-miterlimit: 4; fill: rgb(255,75,85); fill-rule: nonzero; opacity: 1;" vector-effect="non-scaling-stroke"  transform=" translate(-19, -5.14)" d="M 37.5 4.11056 L 0.5 4.11056 L 0.5 6.16587 L 37.5 6.16587 L 37.5 4.11056 Z" stroke-linecap="round" />
</g>
		<g transform="matrix(1 0 0 1 0 -0.14)"  >
<path style="stroke: none; stroke-width: 1; stroke-dasharray: none; stroke-linecap: butt; stroke-dashoffset: 0; stroke-linejoin: miter; stroke-miterlimit: 4; fill: rgb(255,75,85); fill-rule: nonzero; opacity: 1;" vector-effect="non-scaling-stroke"  transform=" translate(-19, -13.36)" d="M 0.5 13.6845 C 0.5 14.0728 0.785666 14.3877 1.13796 14.3877 L 37.5 14.3877 L 37.5 12.3323 L 0.5 12.3323 L 0.5 13.6845 Z" stroke-linecap="round" />
</g>
		<g transform="matrix(1 0 0 1 0 8.08)"  >
<path style="stroke: none; stroke-width: 1; stroke-dasharray: none; stroke-linecap: butt; stroke-dashoffset: 0; stroke-linejoin: miter; stroke-miterlimit: 4; fill: rgb(255,75,85); fill-rule: nonzero; opacity: 1;" vector-effect="non-scaling-stroke"  transform=" translate(-19, -21.58)" d="M 37.5 20.5544 L 0.5 20.5544 L 0.5 22.6098 L 37.5 22.6098 L 37.5 20.5544 Z" stroke-linecap="round" />
</g>
		<g transform="matrix(1 0 0 1 0 12.19)"  >
<path style="stroke: none; stroke-width: 1; stroke-dasharray: none; stroke-linecap: butt; stroke-dashoffset: 0; stroke-linejoin: miter; stroke-miterlimit: 4; fill: rgb(255,75,85); fill-rule: nonzero; opacity: 1;" vector-effect="non-scaling-stroke"  transform=" translate(-19, -25.69)" d="M 37.3476 24.6645 L 0.652408 24.6645 C 1.02797 25.8607 2.05819 26.7199 3.27103 26.7199 L 34.729 26.7199 C 35.9419 26.7199 36.972 25.8607 37.3476 24.6645 Z" stroke-linecap="round" />
</g>
		<g transform="matrix(1 0 0 1 0 3.97)"  >
<path style="stroke: none; stroke-width: 1; stroke-dasharray: none; stroke-linecap: butt; stroke-dashoffset: 0; stroke-linejoin: miter; stroke-miterlimit: 4; fill: rgb(255,75,85); fill-rule: nonzero; opacity: 1;" vector-effect="non-scaling-stroke"  transform=" translate(-19, -17.47)" d="M 37.5 16.4434 L 0.5 16.4434 L 0.5 18.4987 L 37.5 18.4987 L 37.5 16.4434 Z" stroke-linecap="round" />
</g>
		<g transform="matrix(1 0 0 1 -9.89 -6.31)"  >
<path style="stroke: none; stroke-width: 1; stroke-dasharray: none; stroke-linecap: butt; stroke-dashoffset: 0; stroke-linejoin: miter; stroke-miterlimit: 4; fill: rgb(65,71,155); fill-rule: nonzero; opacity: 1;" vector-effect="non-scaling-stroke"  transform=" translate(-9.11, -7.19)" d="M 1.13796 14.3877 L 17.0863 14.3877 C 17.4386 14.3877 17.7242 14.0728 17.7242 13.6845 L 17.7242 0.703187 C 17.7242 0.314793 17.4386 0 17.0863 0 L 3.27103 0.0000796104 C 1.74058 0.000159265 0.5 1.3675 0.5 3.05442 L 0.5 13.6845 C 0.5 14.0728 0.785666 14.3877 1.13796 14.3877 Z" stroke-linecap="round" />
</g>
		<g transform="matrix(1 0 0 1 -16.77 -11.19)"  >
<path style="stroke: none; stroke-width: 1; stroke-dasharray: none; stroke-linecap: butt; stroke-dashoffset: 0; stroke-linejoin: miter; stroke-miterlimit: 4; fill: rgb(245,245,245); fill-rule: nonzero; opacity: 1;" vector-effect="non-scaling-stroke"  transform=" translate(-2.23, -2.31)" d="M 2.29139 1.61395 L 2.4326 2.08073 L 2.87898 2.08447 C 2.9368 2.08503 2.96072 2.16628 2.91425 2.20411 L 2.55516 2.49636 L 2.68987 2.96545 C 2.70735 3.02614 2.64455 3.07648 2.59751 3.03937 L 2.23438 2.75333 L 1.87124 3.03944 C 1.8242 3.07656 1.76154 3.02622 1.77888 2.96553 L 1.91359 2.49644 L 1.5545 2.20419 C 1.50803 2.16628 1.53195 2.08503 1.58977 2.08455 L 2.03615 2.08081 L 2.17736 1.61403 C 2.19557 1.5535 2.27304 1.5535 2.29139 1.61395 Z" stroke-linecap="round" />
</g>
		<g transform="matrix(1 0 0 1 -16.77 -8.75)"  >
<path style="stroke: none; stroke-width: 1; stroke-dasharray: none; stroke-linecap: butt; stroke-dashoffset: 0; stroke-linejoin: miter; stroke-miterlimit: 4; fill: rgb(245,245,245); fill-rule: nonzero; opacity: 1;" vector-effect="non-scaling-stroke"  transform=" translate(-2.23, -4.75)" d="M 2.29139 4.05567 L 2.4326 4.52245 L 2.87898 4.52619 C 2.9368 4.52675 2.96072 4.60792 2.91425 4.64583 L 2.55516 4.93816 L 2.68987 5.40724 C 2.70735 5.46794 2.64455 5.51828 2.59751 5.48116 L 2.23438 5.19513 L 1.87124 5.48124 C 1.8242 5.51828 1.76154 5.46802 1.77888 5.40732 L 1.91359 4.93824 L 1.5545 4.64591 C 1.50803 4.60799 1.53195 4.52683 1.58977 4.52627 L 2.03615 4.52253 L 2.17736 4.05575 C 2.19557 3.99529 2.27304 3.99529 2.29139 4.05567 Z" stroke-linecap="round" />
</g>
		<g transform="matrix(1 0 0 1 -16.77 -6.31)"  >
<path style="stroke: none; stroke-width: 1; stroke-dasharray: none; stroke-linecap: butt; stroke-dashoffset: 0; stroke-linejoin: miter; stroke-miterlimit: 4; fill: rgb(245,245,245); fill-rule: nonzero; opacity: 1;" vector-effect="non-scaling-stroke"  transform=" translate(-2.23, -7.19)" d="M 2.29139 6.49747 L 2.4326 6.96425 L 2.87898 6.96799 C 2.9368 6.96855 2.96072 7.04972 2.91425 7.08763 L 2.55516 7.37996 L 2.68987 7.84904 C 2.70735 7.90974 2.64455 7.96008 2.59751 7.92296 L 2.23438 7.63693 L 1.87124 7.92304 C 1.8242 7.96008 1.76154 7.9099 1.77888 7.84912 L 1.91359 7.38004 L 1.5545 7.08771 C 1.50803 7.04979 1.53195 6.96863 1.58977 6.96807 L 2.03615 6.96433 L 2.17736 6.49755 C 2.19557 6.43701 2.27304 6.43701 2.29139 6.49747 Z" stroke-linecap="round" />
</g>
		<g transform="matrix(1 0 0 1 -16.77 -3.86)"  >
<path style="stroke: none; stroke-width: 1; stroke-dasharray: none; stroke-linecap: butt; stroke-dashoffset: 0; stroke-linejoin: miter; stroke-miterlimit: 4; fill: rgb(245,245,245); fill-rule: nonzero; opacity: 1;" vector-effect="non-scaling-stroke"  transform=" translate(-2.23, -9.64)" d="M 2.29139 8.93919 L 2.4326 9.40597 L 2.87898 9.40971 C 2.9368 9.41027 2.96072 9.49151 2.91425 9.52935 L 2.55516 9.82168 L 2.68987 10.2908 C 2.70735 10.3515 2.64455 10.4018 2.59751 10.3647 L 2.23438 10.0786 L 1.87124 10.3648 C 1.8242 10.4018 1.76154 10.3515 1.77888 10.2908 L 1.91359 9.82176 L 1.5545 9.52943 C 1.50803 9.49167 1.53195 9.41035 1.58977 9.40979 L 2.03615 9.40604 L 2.17736 8.93927 C 2.19557 8.87873 2.27304 8.87873 2.29139 8.93919 Z" stroke-linecap="round" />
</g>
		<g transform="matrix(1 0 0 1 -16.77 -1.42)"  >
<path style="stroke: none; stroke-width: 1; stroke-dasharray: none; stroke-linecap: butt; stroke-dashoffset: 0; stroke-linejoin: miter; stroke-miterlimit: 4; fill: rgb(245,245,245); fill-rule: nonzero; opacity: 1;" vector-effect="non-scaling-stroke"  transform=" translate(-2.23, -12.08)" d="M 2.29139 11.3809 L 2.4326 11.8477 L 2.87898 11.8514 C 2.9368 11.852 2.96072 11.9332 2.91425 11.9711 L 2.55516 12.2634 L 2.68987 12.7325 C 2.70735 12.7932 2.64455 12.8435 2.59751 12.8064 L 2.23438 12.5204 L 1.87124 12.8065 C 1.8242 12.8435 1.76154 12.7933 1.77888 12.7326 L 1.91359 12.2635 L 1.5545 11.9711 C 1.50803 11.9332 1.53195 11.8521 1.58977 11.8515 L 2.03615 11.8478 L 2.17736 11.381 C 2.19557 11.3205 2.27304 11.3205 2.29139 11.3809 Z" stroke-linecap="round" />
</g>
		<g transform="matrix(1 0 0 1 -15.05 -9.99)"  >
<path style="stroke: none; stroke-width: 1; stroke-dasharray: none; stroke-linecap: butt; stroke-dashoffset: 0; stroke-linejoin: miter; stroke-miterlimit: 4; fill: rgb(245,245,245); fill-rule: nonzero; opacity: 1;" vector-effect="non-scaling-stroke"  transform=" translate(-3.95, -3.51)" d="M 4.01081 2.81108 L 4.15202 3.27785 L 4.5984 3.28159 C 4.65621 3.28215 4.68013 3.3634 4.63367 3.40123 L 4.27458 3.69357 L 4.40928 4.16265 C 4.42677 4.22334 4.36397 4.27369 4.31693 4.23657 L 3.95379 3.95045 L 3.59066 4.23657 C 3.54361 4.27361 3.48096 4.22334 3.4983 4.16265 L 3.633 3.69357 L 3.27392 3.40123 C 3.22745 3.36332 3.25137 3.28215 3.30918 3.28159 L 3.75557 3.27785 L 3.89677 2.81108 C 3.91498 2.7507 3.99253 2.7507 4.01081 2.81108 Z" stroke-linecap="round" />
</g>
		<g transform="matrix(1 0 0 1 -15.05 -7.55)"  >
<path style="stroke: none; stroke-width: 1; stroke-dasharray: none; stroke-linecap: butt; stroke-dashoffset: 0; stroke-linejoin: miter; stroke-miterlimit: 4; fill: rgb(245,245,245); fill-rule: nonzero; opacity: 1;" vector-effect="non-scaling-stroke"  transform=" translate(-3.95, -5.95)" d="M 4.01081 5.25288 L 4.15202 5.71965 L 4.5984 5.72339 C 4.65621 5.72395 4.68013 5.8052 4.63367 5.84303 L 4.27458 6.13537 L 4.40928 6.60445 C 4.42677 6.66514 4.36397 6.71549 4.31693 6.67837 L 3.95379 6.39225 L 3.59066 6.67837 C 3.54361 6.71541 3.48096 6.66522 3.4983 6.60445 L 3.633 6.13537 L 3.27392 5.84303 C 3.22745 5.80528 3.25137 5.72395 3.30918 5.72339 L 3.75557 5.71965 L 3.89677 5.25288 C 3.91498 5.19242 3.99253 5.19242 4.01081 5.25288 Z" stroke-linecap="round" />
</g>
		<g transform="matrix(1 0 0 1 -15.05 -5.11)"  >
<path style="stroke: none; stroke-width: 1; stroke-dasharray: none; stroke-linecap: butt; stroke-dashoffset: 0; stroke-linejoin: miter; stroke-miterlimit: 4; fill: rgb(245,245,245); fill-rule: nonzero; opacity: 1;" vector-effect="non-scaling-stroke"  transform=" translate(-3.95, -8.39)" d="M 4.01081 7.6946 L 4.15202 8.16137 L 4.5984 8.16511 C 4.65621 8.16567 4.68013 8.24684 4.63367 8.28475 L 4.27458 8.57708 L 4.40928 9.04617 C 4.42677 9.10686 4.36397 9.15721 4.31693 9.12009 L 3.95379 8.83397 L 3.59066 9.12009 C 3.54361 9.15713 3.48096 9.10686 3.4983 9.04617 L 3.633 8.57708 L 3.27392 8.28475 C 3.22745 8.24684 3.25137 8.16567 3.30918 8.16511 L 3.75557 8.16137 L 3.89677 7.6946 C 3.91498 7.63414 3.99253 7.63414 4.01081 7.6946 Z" stroke-linecap="round" />
</g>
		<g transform="matrix(1 0 0 1 -15.05 -2.67)"  >
<path style="stroke: none; stroke-width: 1; stroke-dasharray: none; stroke-linecap: butt; stroke-dashoffset: 0; stroke-linejoin: miter; stroke-miterlimit: 4; fill: rgb(245,245,245); fill-rule: nonzero; opacity: 1;" vector-effect="non-scaling-stroke"  transform=" translate(-3.95, -10.83)" d="M 4.01081 10.1363 L 4.15202 10.6031 L 4.5984 10.6068 C 4.65621 10.6074 4.68013 10.6886 4.63367 10.7265 L 4.27458 11.0188 L 4.40928 11.4879 C 4.42677 11.5486 4.36397 11.5989 4.31693 11.5618 L 3.95379 11.2757 L 3.59066 11.5618 C 3.54361 11.5989 3.48096 11.5486 3.4983 11.4879 L 3.633 11.0188 L 3.27392 10.7265 C 3.22745 10.6886 3.25137 10.6074 3.30918 10.6068 L 3.75557 10.6031 L 3.89677 10.1363 C 3.91498 10.0759 3.99253 10.0759 4.01081 10.1363 Z" stroke-linecap="round" />
</g>
		<g transform="matrix(1 0 0 1 -13.33 -11.19)"  >
<path style="stroke: none; stroke-width: 1; stroke-dasharray: none; stroke-linecap: butt; stroke-dashoffset: 0; stroke-linejoin: miter; stroke-miterlimit: 4; fill: rgb(245,245,245); fill-rule: nonzero; opacity: 1;" vector-effect="non-scaling-stroke"  transform=" translate(-5.67, -2.31)" d="M 5.73022 1.61395 L 5.87143 2.08073 L 6.31782 2.08447 C 6.37563 2.08503 6.39955 2.16628 6.35308 2.20411 L 5.99399 2.49636 L 6.1287 2.96545 C 6.14619 3.02614 6.08339 3.07648 6.03634 3.03936 L 5.67321 2.75325 L 5.31007 3.03936 C 5.26303 3.07648 5.20037 3.02614 5.21772 2.96545 L 5.35242 2.49636 L 4.99333 2.20411 C 4.94687 2.1662 4.97079 2.08495 5.0286 2.08447 L 5.47498 2.08073 L 5.61619 1.61395 C 5.6344 1.5535 5.71194 1.5535 5.73022 1.61395 Z" stroke-linecap="round" />
</g>
		<g transform="matrix(1 0 0 1 -13.33 -8.75)"  >
<path style="stroke: none; stroke-width: 1; stroke-dasharray: none; stroke-linecap: butt; stroke-dashoffset: 0; stroke-linejoin: miter; stroke-miterlimit: 4; fill: rgb(245,245,245); fill-rule: nonzero; opacity: 1;" vector-effect="non-scaling-stroke"  transform=" translate(-5.67, -4.75)" d="M 5.73022 4.05567 L 5.87143 4.52245 L 6.31782 4.52619 C 6.37563 4.52675 6.39955 4.60792 6.35308 4.64583 L 5.99399 4.93816 L 6.1287 5.40725 C 6.14619 5.46794 6.08339 5.51828 6.03634 5.48117 L 5.67321 5.19505 L 5.31007 5.48117 C 5.26303 5.5182 5.20037 5.46794 5.21772 5.40725 L 5.35242 4.93816 L 4.99333 4.64583 C 4.94687 4.60792 4.97079 4.52675 5.0286 4.52619 L 5.47498 4.52245 L 5.61619 4.05567 C 5.6344 3.99529 5.71194 3.99529 5.73022 4.05567 Z" stroke-linecap="round" />
</g>
		<g transform="matrix(1 0 0 1 -13.33 -6.31)"  >
<path style="stroke: none; stroke-width: 1; stroke-dasharray: none; stroke-linecap: butt; stroke-dashoffset: 0; stroke-linejoin: miter; stroke-miterlimit: 4; fill: rgb(245,245,245); fill-rule: nonzero; opacity: 1;" vector-effect="non-scaling-stroke"  transform=" translate(-5.67, -7.19)" d="M 5.73022 6.49747 L 5.87143 6.96425 L 6.31782 6.96799 C 6.37563 6.96855 6.39955 7.04972 6.35308 7.08763 L 5.99399 7.37996 L 6.1287 7.84904 C 6.14619 7.90974 6.08339 7.96008 6.03634 7.92296 L 5.67321 7.63685 L 5.31007 7.92296 C 5.26303 7.96 5.20037 7.90982 5.21772 7.84904 L 5.35242 7.37996 L 4.99333 7.08763 C 4.94687 7.04972 4.97079 6.96855 5.0286 6.96799 L 5.47498 6.96425 L 5.61619 6.49747 C 5.6344 6.43701 5.71194 6.43701 5.73022 6.49747 Z" stroke-linecap="round" />
</g>
		<g transform="matrix(1 0 0 1 -13.33 -3.86)"  >
<path style="stroke: none; stroke-width: 1; stroke-dasharray: none; stroke-linecap: butt; stroke-dashoffset: 0; stroke-linejoin: miter; stroke-miterlimit: 4; fill: rgb(245,245,245); fill-rule: nonzero; opacity: 1;" vector-effect="non-scaling-stroke"  transform=" translate(-5.67, -9.64)" d="M 5.73022 8.93919 L 5.87143 9.40597 L 6.31782 9.40971 C 6.37563 9.41027 6.39955 9.49151 6.35308 9.52935 L 5.99399 9.82168 L 6.1287 10.2908 C 6.14619 10.3515 6.08339 10.4018 6.03634 10.3647 L 5.67321 10.0786 L 5.31007 10.3647 C 5.26303 10.4017 5.20037 10.3515 5.21772 10.2908 L 5.35242 9.82168 L 4.99333 9.52935 C 4.94687 9.49159 4.97079 9.41027 5.0286 9.40971 L 5.47498 9.40597 L 5.61619 8.93919 C 5.6344 8.87873 5.71194 8.87873 5.73022 8.93919 Z" stroke-linecap="round" />
</g>
		<g transform="matrix(1 0 0 1 -13.33 -1.42)"  >
<path style="stroke: none; stroke-width: 1; stroke-dasharray: none; stroke-linecap: butt; stroke-dashoffset: 0; stroke-linejoin: miter; stroke-miterlimit: 4; fill: rgb(245,245,245); fill-rule: nonzero; opacity: 1;" vector-effect="non-scaling-stroke"  transform=" translate(-5.67, -12.08)" d="M 5.73022 11.3809 L 5.87143 11.8477 L 6.31782 11.8514 C 6.37563 11.852 6.39955 11.9332 6.35308 11.9711 L 5.99399 12.2634 L 6.1287 12.7325 C 6.14619 12.7932 6.08339 12.8435 6.03634 12.8064 L 5.67321 12.5203 L 5.31007 12.8064 C 5.26303 12.8434 5.20037 12.7932 5.21772 12.7325 L 5.35242 12.2634 L 4.99333 11.9711 C 4.94687 11.9332 4.97079 11.852 5.0286 11.8514 L 5.47498 11.8477 L 5.61619 11.3809 C 5.6344 11.3205 5.71194 11.3205 5.73022 11.3809 Z" stroke-linecap="round" />
</g>
		<g transform="matrix(1 0 0 1 -11.61 -9.99)"  >
<path style="stroke: none; stroke-width: 1; stroke-dasharray: none; stroke-linecap: butt; stroke-dashoffset: 0; stroke-linejoin: miter; stroke-miterlimit: 4; fill: rgb(245,245,245); fill-rule: nonzero; opacity: 1;" vector-effect="non-scaling-stroke"  transform=" translate(-7.39, -3.51)" d="M 7.44971 2.81108 L 7.59092 3.27785 L 8.03731 3.28159 C 8.09512 3.28215 8.11904 3.3634 8.07257 3.40123 L 7.71348 3.69357 L 7.84819 4.16265 C 7.86567 4.22334 7.80288 4.27369 7.75583 4.23657 L 7.3927 3.95045 L 7.02956 4.23657 C 6.98252 4.27361 6.91986 4.22334 6.93721 4.16265 L 7.07191 3.69357 L 6.71282 3.40123 C 6.66635 3.36332 6.69027 3.28215 6.74809 3.28159 L 7.19447 3.27785 L 7.33568 2.81108 C 7.35382 2.7507 7.43143 2.7507 7.44971 2.81108 Z" stroke-linecap="round" />
</g>
		<g transform="matrix(1 0 0 1 -11.61 -7.55)"  >
<path style="stroke: none; stroke-width: 1; stroke-dasharray: none; stroke-linecap: butt; stroke-dashoffset: 0; stroke-linejoin: miter; stroke-miterlimit: 4; fill: rgb(245,245,245); fill-rule: nonzero; opacity: 1;" vector-effect="non-scaling-stroke"  transform=" translate(-7.39, -5.95)" d="M 7.44971 5.25288 L 7.59092 5.71965 L 8.03731 5.72339 C 8.09512 5.72395 8.11904 5.8052 8.07257 5.84303 L 7.71348 6.13537 L 7.84819 6.60445 C 7.86567 6.66514 7.80288 6.71549 7.75583 6.67837 L 7.3927 6.39225 L 7.02956 6.67837 C 6.98252 6.71541 6.91986 6.66522 6.93721 6.60445 L 7.07191 6.13537 L 6.71282 5.84303 C 6.66635 5.80528 6.69027 5.72395 6.74809 5.72339 L 7.19447 5.71965 L 7.33568 5.25288 C 7.35382 5.19242 7.43143 5.19242 7.44971 5.25288 Z" stroke-linecap="round" />
</g>
		<g transform="matrix(1 0 0 1 -11.61 -5.11)"  >
<path style="stroke: none; stroke-width: 1; stroke-dasharray: none; stroke-linecap: butt; stroke-dashoffset: 0; stroke-linejoin: miter; stroke-miterlimit: 4; fill: rgb(245,245,245); fill-rule: nonzero; opacity: 1;" vector-effect="non-scaling-stroke"  transform=" translate(-7.39, -8.39)" d="M 7.44971 7.6946 L 7.59092 8.16137 L 8.03731 8.16511 C 8.09512 8.16567 8.11904 8.24684 8.07257 8.28475 L 7.71348 8.57708 L 7.84819 9.04617 C 7.86567 9.10686 7.80288 9.15721 7.75583 9.12009 L 7.3927 8.83397 L 7.02956 9.12009 C 6.98252 9.15713 6.91986 9.10686 6.93721 9.04617 L 7.07191 8.57708 L 6.71282 8.28475 C 6.66635 8.24684 6.69027 8.16567 6.74809 8.16511 L 7.19447 8.16137 L 7.33568 7.6946 C 7.35382 7.63414 7.43143 7.63414 7.44971 7.6946 Z" stroke-linecap="round" />
</g>
		<g transform="matrix(1 0 0 1 -11.61 -2.67)"  >
<path style="stroke: none; stroke-width: 1; stroke-dasharray: none; stroke-linecap: butt; stroke-dashoffset: 0; stroke-linejoin: miter; stroke-miterlimit: 4; fill: rgb(245,245,245); fill-rule: nonzero; opacity: 1;" vector-effect="non-scaling-stroke"  transform=" translate(-7.39, -10.83)" d="M 7.44971 10.1363 L 7.59092 10.6031 L 8.03731 10.6068 C 8.09512 10.6074 8.11904 10.6886 8.07257 10.7265 L 7.71348 11.0188 L 7.84819 11.4879 C 7.86567 11.5486 7.80288 11.5989 7.75583 11.5618 L 7.3927 11.2757 L 7.02956 11.5618 C 6.98252 11.5989 6.91986 11.5486 6.93721 11.4879 L 7.07191 11.0188 L 6.71282 10.7265 C 6.66635 10.6886 6.69027 10.6074 6.74809 10.6068 L 7.19447 10.6031 L 7.33568 10.1363 C 7.35382 10.0759 7.43143 10.0759 7.44971 10.1363 Z" stroke-linecap="round" />
</g>
		<g transform="matrix(1 0 0 1 -9.89 -11.19)"  >
<path style="stroke: none; stroke-width: 1; stroke-dasharray: none; stroke-linecap: butt; stroke-dashoffset: 0; stroke-linejoin: miter; stroke-miterlimit: 4; fill: rgb(245,245,245); fill-rule: nonzero; opacity: 1;" vector-effect="non-scaling-stroke"  transform=" translate(-9.11, -2.31)" d="M 9.16913 1.61395 L 9.31034 2.08073 L 9.75672 2.08447 C 9.81453 2.08503 9.83845 2.16628 9.79199 2.20411 L 9.4329 2.49636 L 9.5676 2.96545 C 9.58509 3.02614 9.52229 3.07648 9.47525 3.03937 L 9.11204 2.75333 L 8.74891 3.03944 C 8.70186 3.07656 8.63921 3.02622 8.65655 2.96553 L 8.79125 2.49644 L 8.43216 2.20419 C 8.3857 2.16628 8.40962 2.08503 8.46743 2.08455 L 8.91382 2.08081 L 9.05502 1.61403 C 9.07331 1.5535 9.15085 1.5535 9.16913 1.61395 Z" stroke-linecap="round" />
</g>
		<g transform="matrix(1 0 0 1 -9.89 -8.75)"  >
<path style="stroke: none; stroke-width: 1; stroke-dasharray: none; stroke-linecap: butt; stroke-dashoffset: 0; stroke-linejoin: miter; stroke-miterlimit: 4; fill: rgb(245,245,245); fill-rule: nonzero; opacity: 1;" vector-effect="non-scaling-stroke"  transform=" translate(-9.11, -4.75)" d="M 9.16913 4.05567 L 9.31034 4.52245 L 9.75672 4.52619 C 9.81453 4.52675 9.83845 4.60792 9.79199 4.64583 L 9.4329 4.93816 L 9.5676 5.40725 C 9.58509 5.46794 9.52229 5.51828 9.47525 5.48117 L 9.11204 5.19505 L 8.74891 5.48117 C 8.70186 5.5182 8.63921 5.46794 8.65655 5.40725 L 8.79125 4.93816 L 8.43216 4.64583 C 8.3857 4.60792 8.40962 4.52675 8.46743 4.52619 L 8.91382 4.52245 L 9.05502 4.05567 C 9.07331 3.99529 9.15085 3.99529 9.16913 4.05567 Z" stroke-linecap="round" />
</g>
		<g transform="matrix(1 0 0 1 -9.89 -6.31)"  >
<path style="stroke: none; stroke-width: 1; stroke-dasharray: none; stroke-linecap: butt; stroke-dashoffset: 0; stroke-linejoin: miter; stroke-miterlimit: 4; fill: rgb(245,245,245); fill-rule: nonzero; opacity: 1;" vector-effect="non-scaling-stroke"  transform=" translate(-9.11, -7.19)" d="M 9.16913 6.49747 L 9.31034 6.96425 L 9.75672 6.96799 C 9.81453 6.96855 9.83845 7.04972 9.79199 7.08763 L 9.4329 7.37996 L 9.5676 7.84904 C 9.58509 7.90974 9.52229 7.96008 9.47525 7.92296 L 9.11204 7.63677 L 8.74891 7.92288 C 8.70186 7.95992 8.63921 7.90966 8.65655 7.84897 L 8.79125 7.37988 L 8.43216 7.08755 C 8.3857 7.04964 8.40962 6.96847 8.46743 6.96791 L 8.91382 6.96417 L 9.05502 6.49739 C 9.07331 6.43702 9.15085 6.43701 9.16913 6.49747 Z" stroke-linecap="round" />
</g>
		<g transform="matrix(1 0 0 1 -9.89 -3.86)"  >
<path style="stroke: none; stroke-width: 1; stroke-dasharray: none; stroke-linecap: butt; stroke-dashoffset: 0; stroke-linejoin: miter; stroke-miterlimit: 4; fill: rgb(245,245,245); fill-rule: nonzero; opacity: 1;" vector-effect="non-scaling-stroke"  transform=" translate(-9.11, -9.64)" d="M 9.16913 8.93919 L 9.31034 9.40597 L 9.75672 9.40971 C 9.81453 9.41027 9.83845 9.49151 9.79199 9.52935 L 9.4329 9.82168 L 9.5676 10.2908 C 9.58509 10.3515 9.52229 10.4018 9.47525 10.3647 L 9.11204 10.0786 L 8.74891 10.3647 C 8.70186 10.4017 8.63921 10.3515 8.65655 10.2908 L 8.79125 9.82168 L 8.43216 9.52935 C 8.3857 9.49159 8.40962 9.41027 8.46743 9.40971 L 8.91382 9.40597 L 9.05502 8.93919 C 9.07331 8.87873 9.15085 8.87873 9.16913 8.93919 Z" stroke-linecap="round" />
</g>
		<g transform="matrix(1 0 0 1 -9.89 -1.42)"  >
<path style="stroke: none; stroke-width: 1; stroke-dasharray: none; stroke-linecap: butt; stroke-dashoffset: 0; stroke-linejoin: miter; stroke-miterlimit: 4; fill: rgb(245,245,245); fill-rule: nonzero; opacity: 1;" vector-effect="non-scaling-stroke"  transform=" translate(-9.11, -12.08)" d="M 9.16913 11.3809 L 9.31034 11.8477 L 9.75672 11.8514 C 9.81453 11.852 9.83845 11.9332 9.79199 11.9711 L 9.4329 12.2634 L 9.5676 12.7325 C 9.58509 12.7932 9.52229 12.8435 9.47525 12.8064 L 9.11204 12.5203 L 8.74891 12.8064 C 8.70186 12.8434 8.63921 12.7932 8.65655 12.7325 L 8.79125 12.2634 L 8.43216 11.9711 C 8.3857 11.9332 8.40962 11.852 8.46743 11.8514 L 8.91382 11.8477 L 9.05502 11.3809 C 9.07331 11.3205 9.15085 11.3205 9.16913 11.3809 Z" stroke-linecap="round" />
</g>
		<g transform="matrix(1 0 0 1 -8.17 -9.99)"  >
<path style="stroke: none; stroke-width: 1; stroke-dasharray: none; stroke-linecap: butt; stroke-dashoffset: 0; stroke-linejoin: miter; stroke-miterlimit: 4; fill: rgb(245,245,245); fill-rule: nonzero; opacity: 1;" vector-effect="non-scaling-stroke"  transform=" translate(-10.83, -3.51)" d="M 10.8885 2.81108 L 11.0298 3.27785 L 11.4761 3.28159 C 11.5339 3.28215 11.5579 3.3634 11.5114 3.40123 L 11.1523 3.69357 L 11.287 4.16265 C 11.3045 4.22334 11.2417 4.27369 11.1947 4.23657 L 10.8315 3.95045 L 10.4684 4.23657 C 10.4213 4.27361 10.3587 4.22334 10.376 4.16265 L 10.5107 3.69357 L 10.1517 3.40123 C 10.1052 3.36332 10.1291 3.28215 10.1869 3.28159 L 10.6333 3.27785 L 10.7745 2.81108 C 10.7928 2.7507 10.8703 2.7507 10.8885 2.81108 Z" stroke-linecap="round" />
</g>
		<g transform="matrix(1 0 0 1 -8.17 -7.55)"  >
<path style="stroke: none; stroke-width: 1; stroke-dasharray: none; stroke-linecap: butt; stroke-dashoffset: 0; stroke-linejoin: miter; stroke-miterlimit: 4; fill: rgb(245,245,245); fill-rule: nonzero; opacity: 1;" vector-effect="non-scaling-stroke"  transform=" translate(-10.83, -5.95)" d="M 10.8885 5.25288 L 11.0298 5.71965 L 11.4761 5.72339 C 11.5339 5.72395 11.5579 5.8052 11.5114 5.84303 L 11.1523 6.13537 L 11.287 6.60445 C 11.3045 6.66514 11.2417 6.71549 11.1947 6.67837 L 10.8315 6.39225 L 10.4684 6.67837 C 10.4213 6.71541 10.3587 6.66522 10.376 6.60445 L 10.5107 6.13537 L 10.1517 5.84303 C 10.1052 5.80528 10.1291 5.72395 10.1869 5.72339 L 10.6333 5.71965 L 10.7745 5.25288 C 10.7928 5.19242 10.8703 5.19242 10.8885 5.25288 Z" stroke-linecap="round" />
</g>
		<g transform="matrix(1 0 0 1 -8.17 -5.11)"  >
<path style="stroke: none; stroke-width: 1; stroke-dasharray: none; stroke-linecap: butt; stroke-dashoffset: 0; stroke-linejoin: miter; stroke-miterlimit: 4; fill: rgb(245,245,245); fill-rule: nonzero; opacity: 1;" vector-effect="non-scaling-stroke"  transform=" translate(-10.83, -8.39)" d="M 10.8885 7.6946 L 11.0298 8.16137 L 11.4761 8.16511 C 11.5339 8.16567 11.5579 8.24684 11.5114 8.28475 L 11.1523 8.57708 L 11.287 9.04617 C 11.3045 9.10686 11.2417 9.15721 11.1947 9.12009 L 10.8315 8.83397 L 10.4684 9.12009 C 10.4213 9.15713 10.3587 9.10686 10.376 9.04617 L 10.5107 8.57708 L 10.1517 8.28475 C 10.1052 8.24684 10.1291 8.16567 10.1869 8.16511 L 10.6333 8.16137 L 10.7745 7.6946 C 10.7928 7.63414 10.8703 7.63414 10.8885 7.6946 Z" stroke-linecap="round" />
</g>
		<g transform="matrix(1 0 0 1 -8.17 -2.67)"  >
<path style="stroke: none; stroke-width: 1; stroke-dasharray: none; stroke-linecap: butt; stroke-dashoffset: 0; stroke-linejoin: miter; stroke-miterlimit: 4; fill: rgb(245,245,245); fill-rule: nonzero; opacity: 1;" vector-effect="non-scaling-stroke"  transform=" translate(-10.83, -10.83)" d="M 10.8885 10.1363 L 11.0298 10.6031 L 11.4761 10.6068 C 11.5339 10.6074 11.5579 10.6886 11.5114 10.7265 L 11.1523 11.0188 L 11.287 11.4879 C 11.3045 11.5486 11.2417 11.5989 11.1947 11.5618 L 10.8315 11.2757 L 10.4684 11.5618 C 10.4213 11.5989 10.3587 11.5486 10.376 11.4879 L 10.5107 11.0188 L 10.1517 10.7265 C 10.1052 10.6886 10.1291 10.6074 10.1869 10.6068 L 10.6333 10.6031 L 10.7745 10.1363 C 10.7928 10.0759 10.8703 10.0759 10.8885 10.1363 Z" stroke-linecap="round" />
</g>
		<g transform="matrix(1 0 0 1 -6.45 -11.19)"  >
<path style="stroke: none; stroke-width: 1; stroke-dasharray: none; stroke-linecap: butt; stroke-dashoffset: 0; stroke-linejoin: miter; stroke-miterlimit: 4; fill: rgb(245,245,245); fill-rule: nonzero; opacity: 1;" vector-effect="non-scaling-stroke"  transform=" translate(-12.55, -2.31)" d="M 12.608 1.61395 L 12.7492 2.08073 L 13.1956 2.08447 C 13.2534 2.08503 13.2774 2.16628 13.2309 2.20411 L 12.8718 2.49636 L 13.0065 2.96545 C 13.024 3.02614 12.9612 3.07648 12.9142 3.03936 L 12.551 2.75325 L 12.1879 3.03936 C 12.1408 3.07648 12.0782 3.02614 12.0955 2.96545 L 12.2302 2.49636 L 11.8711 2.20411 C 11.8247 2.1662 11.8486 2.08495 11.9064 2.08447 L 12.3528 2.08073 L 12.494 1.61395 C 12.5121 1.5535 12.5898 1.5535 12.608 1.61395 Z" stroke-linecap="round" />
</g>
		<g transform="matrix(1 0 0 1 -6.45 -8.75)"  >
<path style="stroke: none; stroke-width: 1; stroke-dasharray: none; stroke-linecap: butt; stroke-dashoffset: 0; stroke-linejoin: miter; stroke-miterlimit: 4; fill: rgb(245,245,245); fill-rule: nonzero; opacity: 1;" vector-effect="non-scaling-stroke"  transform=" translate(-12.55, -4.75)" d="M 12.608 4.05567 L 12.7492 4.52245 L 13.1956 4.52619 C 13.2534 4.52675 13.2774 4.60792 13.2309 4.64583 L 12.8718 4.93816 L 13.0065 5.40725 C 13.024 5.46794 12.9612 5.51828 12.9142 5.48117 L 12.551 5.19505 L 12.1879 5.48117 C 12.1408 5.5182 12.0782 5.46794 12.0955 5.40725 L 12.2302 4.93816 L 11.8711 4.64583 C 11.8247 4.60792 11.8486 4.52675 11.9064 4.52619 L 12.3528 4.52245 L 12.494 4.05567 C 12.5121 3.99529 12.5898 3.99529 12.608 4.05567 Z" stroke-linecap="round" />
</g>
		<g transform="matrix(1 0 0 1 -6.45 -6.31)"  >
<path style="stroke: none; stroke-width: 1; stroke-dasharray: none; stroke-linecap: butt; stroke-dashoffset: 0; stroke-linejoin: miter; stroke-miterlimit: 4; fill: rgb(245,245,245); fill-rule: nonzero; opacity: 1;" vector-effect="non-scaling-stroke"  transform=" translate(-12.55, -7.19)" d="M 12.608 6.49747 L 12.7492 6.96425 L 13.1956 6.96799 C 13.2534 6.96855 13.2774 7.04972 13.2309 7.08763 L 12.8718 7.37996 L 13.0065 7.84904 C 13.024 7.90974 12.9612 7.96008 12.9142 7.92296 L 12.551 7.63685 L 12.1879 7.92296 C 12.1408 7.96 12.0782 7.90982 12.0955 7.84904 L 12.2302 7.37996 L 11.8711 7.08763 C 11.8247 7.04972 11.8486 6.96855 11.9064 6.96799 L 12.3528 6.96425 L 12.494 6.49747 C 12.5121 6.43701 12.5898 6.43701 12.608 6.49747 Z" stroke-linecap="round" />
</g>
		<g transform="matrix(1 0 0 1 -6.45 -3.86)"  >
<path style="stroke: none; stroke-width: 1; stroke-dasharray: none; stroke-linecap: butt; stroke-dashoffset: 0; stroke-linejoin: miter; stroke-miterlimit: 4; fill: rgb(245,245,245); fill-rule: nonzero; opacity: 1;" vector-effect="non-scaling-stroke"  transform=" translate(-12.55, -9.64)" d="M 12.608 8.93919 L 12.7492 9.40597 L 13.1956 9.40971 C 13.2534 9.41027 13.2774 9.49151 13.2309 9.52935 L 12.8718 9.82168 L 13.0065 10.2908 C 13.024 10.3515 12.9612 10.4018 12.9142 10.3647 L 12.551 10.0786 L 12.1879 10.3647 C 12.1408 10.4017 12.0782 10.3515 12.0955 10.2908 L 12.2302 9.82168 L 11.8711 9.52935 C 11.8247 9.49159 11.8486 9.41027 11.9064 9.40971 L 12.3528 9.40597 L 12.494 8.93919 C 12.5121 8.87873 12.5898 8.87873 12.608 8.93919 Z" stroke-linecap="round" />
</g>
		<g transform="matrix(1 0 0 1 -6.45 -1.42)"  >
<path style="stroke: none; stroke-width: 1; stroke-dasharray: none; stroke-linecap: butt; stroke-dashoffset: 0; stroke-linejoin: miter; stroke-miterlimit: 4; fill: rgb(245,245,245); fill-rule: nonzero; opacity: 1;" vector-effect="non-scaling-stroke"  transform=" translate(-12.55, -12.08)" d="M 12.608 11.3809 L 12.7492 11.8477 L 13.1956 11.8514 C 13.2534 11.852 13.2774 11.9332 13.2309 11.9711 L 12.8718 12.2634 L 13.0065 12.7325 C 13.024 12.7932 12.9612 12.8435 12.9142 12.8064 L 12.551 12.5203 L 12.1879 12.8064 C 12.1408 12.8434 12.0782 12.7932 12.0955 12.7325 L 12.2302 12.2634 L 11.8711 11.9711 C 11.8247 11.9332 11.8486 11.852 11.9064 11.8514 L 12.3528 11.8477 L 12.494 11.3809 C 12.5121 11.3205 12.5898 11.3205 12.608 11.3809 Z" stroke-linecap="round" />
</g>
		<g transform="matrix(1 0 0 1 -4.73 -9.99)"  >
<path style="stroke: none; stroke-width: 1; stroke-dasharray: none; stroke-linecap: butt; stroke-dashoffset: 0; stroke-linejoin: miter; stroke-miterlimit: 4; fill: rgb(245,245,245); fill-rule: nonzero; opacity: 1;" vector-effect="non-scaling-stroke"  transform=" translate(-14.27, -3.51)" d="M 14.3274 2.81108 L 14.4687 3.27785 L 14.915 3.28159 C 14.9729 3.28215 14.9968 3.3634 14.9503 3.40123 L 14.5912 3.69357 L 14.7259 4.16265 C 14.7434 4.22334 14.6806 4.27369 14.6336 4.23657 L 14.2704 3.95045 L 13.9073 4.23657 C 13.8603 4.27361 13.7976 4.22334 13.8149 4.16265 L 13.9496 3.69357 L 13.5906 3.40123 C 13.5441 3.36332 13.568 3.28215 13.6258 3.28159 L 14.0722 3.27785 L 14.2134 2.81108 C 14.2316 2.7507 14.3092 2.7507 14.3274 2.81108 Z" stroke-linecap="round" />
</g>
		<g transform="matrix(1 0 0 1 -4.73 -7.55)"  >
<path style="stroke: none; stroke-width: 1; stroke-dasharray: none; stroke-linecap: butt; stroke-dashoffset: 0; stroke-linejoin: miter; stroke-miterlimit: 4; fill: rgb(245,245,245); fill-rule: nonzero; opacity: 1;" vector-effect="non-scaling-stroke"  transform=" translate(-14.27, -5.95)" d="M 14.3274 5.25288 L 14.4687 5.71965 L 14.915 5.72339 C 14.9729 5.72395 14.9968 5.8052 14.9503 5.84303 L 14.5912 6.13537 L 14.7259 6.60445 C 14.7434 6.66514 14.6806 6.71549 14.6336 6.67837 L 14.2704 6.39225 L 13.9073 6.67837 C 13.8603 6.71541 13.7976 6.66522 13.8149 6.60445 L 13.9496 6.13537 L 13.5906 5.84303 C 13.5441 5.80528 13.568 5.72395 13.6258 5.72339 L 14.0722 5.71965 L 14.2134 5.25288 C 14.2316 5.19242 14.3092 5.19242 14.3274 5.25288 Z" stroke-linecap="round" />
</g>
		<g transform="matrix(1 0 0 1 -4.73 -5.11)"  >
<path style="stroke: none; stroke-width: 1; stroke-dasharray: none; stroke-linecap: butt; stroke-dashoffset: 0; stroke-linejoin: miter; stroke-miterlimit: 4; fill: rgb(245,245,245); fill-rule: nonzero; opacity: 1;" vector-effect="non-scaling-stroke"  transform=" translate(-14.27, -8.39)" d="M 14.3274 7.6946 L 14.4687 8.16137 L 14.915 8.16511 C 14.9729 8.16567 14.9968 8.24684 14.9503 8.28475 L 14.5912 8.57708 L 14.7259 9.04617 C 14.7434 9.10686 14.6806 9.15721 14.6336 9.12009 L 14.2704 8.83397 L 13.9073 9.12009 C 13.8603 9.15713 13.7976 9.10686 13.8149 9.04617 L 13.9496 8.57708 L 13.5906 8.28475 C 13.5441 8.24684 13.568 8.16567 13.6258 8.16511 L 14.0722 8.16137 L 14.2134 7.6946 C 14.2316 7.63414 14.3092 7.63414 14.3274 7.6946 Z" stroke-linecap="round" />
</g>
		<g transform="matrix(1 0 0 1 -4.73 -2.67)"  >
<path style="stroke: none; stroke-width: 1; stroke-dasharray: none; stroke-linecap: butt; stroke-dashoffset: 0; stroke-linejoin: miter; stroke-miterlimit: 4; fill: rgb(245,245,245); fill-rule: nonzero; opacity: 1;" vector-effect="non-scaling-stroke"  transform=" translate(-14.27, -10.83)" d="M 14.3274 10.1363 L 14.4687 10.6031 L 14.915 10.6068 C 14.9729 10.6074 14.9968 10.6886 14.9503 10.7265 L 14.5912 11.0188 L 14.7259 11.4879 C 14.7434 11.5486 14.6806 11.5989 14.6336 11.5618 L 14.2704 11.2757 L 13.9073 11.5618 C 13.8603 11.5989 13.7976 11.5486 13.8149 11.4879 L 13.9496 11.0188 L 13.5906 10.7265 C 13.5441 10.6886 13.568 10.6074 13.6258 10.6068 L 14.0722 10.6031 L 14.2134 10.1363 C 14.2316 10.0759 14.3092 10.0759 14.3274 10.1363 Z" stroke-linecap="round" />
</g>
		<g transform="matrix(1 0 0 1 -3.01 -11.19)"  >
<path style="stroke: none; stroke-width: 1; stroke-dasharray: none; stroke-linecap: butt; stroke-dashoffset: 0; stroke-linejoin: miter; stroke-miterlimit: 4; fill: rgb(245,245,245); fill-rule: nonzero; opacity: 1;" vector-effect="non-scaling-stroke"  transform=" translate(-15.99, -2.31)" d="M 16.0469 1.61395 L 16.1881 2.08073 L 16.6345 2.08447 C 16.6923 2.08503 16.7163 2.16628 16.6698 2.20411 L 16.3107 2.49636 L 16.4454 2.96545 C 16.4629 3.02614 16.4001 3.07648 16.3531 3.03936 L 15.9899 2.75325 L 15.6268 3.03936 C 15.5797 3.07648 15.5171 3.02614 15.5344 2.96545 L 15.6691 2.49636 L 15.31 2.20411 C 15.2636 2.1662 15.2875 2.08495 15.3453 2.08447 L 15.7917 2.08073 L 15.9329 1.61395 C 15.9511 1.5535 16.0286 1.5535 16.0469 1.61395 Z" stroke-linecap="round" />
</g>
		<g transform="matrix(1 0 0 1 -3.01 -8.75)"  >
<path style="stroke: none; stroke-width: 1; stroke-dasharray: none; stroke-linecap: butt; stroke-dashoffset: 0; stroke-linejoin: miter; stroke-miterlimit: 4; fill: rgb(245,245,245); fill-rule: nonzero; opacity: 1;" vector-effect="non-scaling-stroke"  transform=" translate(-15.99, -4.75)" d="M 16.0469 4.05567 L 16.1881 4.52245 L 16.6345 4.52619 C 16.6923 4.52675 16.7163 4.60792 16.6698 4.64583 L 16.3107 4.93816 L 16.4454 5.40725 C 16.4629 5.46794 16.4001 5.51828 16.3531 5.48117 L 15.9899 5.19505 L 15.6268 5.48117 C 15.5797 5.5182 15.5171 5.46794 15.5344 5.40725 L 15.6691 4.93816 L 15.31 4.64583 C 15.2636 4.60792 15.2875 4.52675 15.3453 4.52619 L 15.7917 4.52245 L 15.9329 4.05567 C 15.9511 3.99529 16.0286 3.99529 16.0469 4.05567 Z" stroke-linecap="round" />
</g>
		<g transform="matrix(1 0 0 1 -3.01 -6.31)"  >
<path style="stroke: none; stroke-width: 1; stroke-dasharray: none; stroke-linecap: butt; stroke-dashoffset: 0; stroke-linejoin: miter; stroke-miterlimit: 4; fill: rgb(245,245,245); fill-rule: nonzero; opacity: 1;" vector-effect="non-scaling-stroke"  transform=" translate(-15.99, -7.19)" d="M 16.0469 6.49747 L 16.1881 6.96425 L 16.6345 6.96799 C 16.6923 6.96855 16.7163 7.04972 16.6698 7.08763 L 16.3107 7.37996 L 16.4454 7.84904 C 16.4629 7.90974 16.4001 7.96008 16.3531 7.92296 L 15.9899 7.63685 L 15.6268 7.92296 C 15.5797 7.96 15.5171 7.90982 15.5344 7.84904 L 15.6691 7.37996 L 15.31 7.08763 C 15.2636 7.04972 15.2875 6.96855 15.3453 6.96799 L 15.7917 6.96425 L 15.9329 6.49747 C 15.9511 6.43701 16.0286 6.43701 16.0469 6.49747 Z" stroke-linecap="round" />
</g>
		<g transform="matrix(1 0 0 1 -3.01 -3.86)"  >
<path style="stroke: none; stroke-width: 1; stroke-dasharray: none; stroke-linecap: butt; stroke-dashoffset: 0; stroke-linejoin: miter; stroke-miterlimit: 4; fill: rgb(245,245,245); fill-rule: nonzero; opacity: 1;" vector-effect="non-scaling-stroke"  transform=" translate(-15.99, -9.64)" d="M 16.0469 8.93919 L 16.1881 9.40597 L 16.6345 9.40971 C 16.6923 9.41027 16.7163 9.49151 16.6698 9.52935 L 16.3107 9.82168 L 16.4454 10.2908 C 16.4629 10.3515 16.4001 10.4018 16.3531 10.3647 L 15.9899 10.0786 L 15.6268 10.3647 C 15.5797 10.4017 15.5171 10.3515 15.5344 10.2908 L 15.6691 9.82168 L 15.31 9.52935 C 15.2636 9.49159 15.2875 9.41027 15.3453 9.40971 L 15.7917 9.40597 L 15.9329 8.93919 C 15.9511 8.87873 16.0286 8.87873 16.0469 8.93919 Z" stroke-linecap="round" />
</g>
		<g transform="matrix(1 0 0 1 -3.01 -1.42)"  >
<path style="stroke: none; stroke-width: 1; stroke-dasharray: none; stroke-linecap: butt; stroke-dashoffset: 0; stroke-linejoin: miter; stroke-miterlimit: 4; fill: rgb(245,245,245); fill-rule: nonzero; opacity: 1;" vector-effect="non-scaling-stroke"  transform=" translate(-15.99, -12.08)" d="M 16.0469 11.3809 L 16.1881 11.8477 L 16.6345 11.8514 C 16.6923 11.852 16.7163 11.9332 16.6698 11.9711 L 16.3107 12.2634 L 16.4454 12.7325 C 16.4629 12.7932 16.4001 12.8435 16.3531 12.8064 L 15.9899 12.5203 L 15.6268 12.8064 C 15.5797 12.8434 15.5171 12.7932 15.5344 12.7325 L 15.6691 12.2634 L 15.31 11.9711 C 15.2636 11.9332 15.2875 11.852 15.3453 11.8514 L 15.7917 11.8477 L 15.9329 11.3809 C 15.9511 11.3205 16.0286 11.3205 16.0469 11.3809 Z" stroke-linecap="round" />
</g>
</g>
</g>
</svg>